<svg xmlns="http://www.w3.org/2000/svg" width="320.49" height="35" viewBox="0 0 320.49 35"><rect class="svg__rect" x="0" y="0" width="115.31" height="35" fill="#31C4F3"/><rect class="svg__rect" x="113.31" y="0" width="207.18" height="35" fill="#007BC6"/><path class="svg__text" d="M15.69 22L14.22 22L14.22 13.47L16.14 13.47L18.60 20.01L21.06 13.47L22.97 13.47L22.97 22L21.49 22L21.49 19.19L21.64 15.43L19.12 22L18.06 22L15.55 15.43L15.69 19.19L15.69 22ZM28.49 22L26.95 22L30.17 13.47L31.50 13.47L34.73 22L33.18 22L32.49 20.01L29.18 20.01L28.49 22ZM30.83 15.28L29.60 18.82L32.07 18.82L30.83 15.28ZM41.14 22L38.69 22L38.69 13.47L41.21 13.47Q42.34 13.47 43.21 13.97Q44.09 14.48 44.57 15.40Q45.05 16.33 45.05 17.52L45.05 17.52L45.05 17.95Q45.05 19.16 44.57 20.08Q44.08 21.00 43.19 21.50Q42.30 22 41.14 22L41.14 22ZM40.17 14.66L40.17 20.82L41.14 20.82Q42.30 20.82 42.93 20.09Q43.55 19.36 43.56 17.99L43.56 17.99L43.56 17.52Q43.56 16.13 42.96 15.40Q42.35 14.66 41.21 14.66L41.21 14.66L40.17 14.66ZM55.09 22L49.51 22L49.51 13.47L55.05 13.47L55.05 14.66L51.00 14.66L51.00 17.02L54.50 17.02L54.50 18.19L51.00 18.19L51.00 20.82L55.09 20.82L55.09 22ZM66.65 22L64.68 13.47L66.15 13.47L67.47 19.88L69.10 13.47L70.34 13.47L71.96 19.89L73.27 13.47L74.74 13.47L72.77 22L71.35 22L69.73 15.77L68.07 22L66.65 22ZM80.38 22L78.90 22L78.90 13.47L80.38 13.47L80.38 22ZM86.87 14.66L84.23 14.66L84.23 13.47L91.00 13.47L91.00 14.66L88.34 14.66L88.34 22L86.87 22L86.87 14.66ZM96.24 22L94.75 22L94.75 13.47L96.24 13.47L96.24 17.02L100.05 17.02L100.05 13.47L101.53 13.47L101.53 22L100.05 22L100.05 18.21L96.24 18.21L96.24 22Z" fill="#FFFFFF"/><path class="svg__text" d="M129.88 22L127.50 22L127.50 13.60L131.34 13.60Q132.48 13.60 133.32 13.98Q134.16 14.35 134.62 15.06Q135.07 15.76 135.07 16.71L135.07 16.71Q135.07 17.62 134.65 18.30Q134.22 18.98 133.43 19.36L133.43 19.36L135.24 22L132.70 22L131.17 19.77L129.88 19.77L129.88 22ZM129.88 15.47L129.88 17.93L131.20 17.93Q131.93 17.93 132.30 17.61Q132.67 17.29 132.67 16.71L132.67 16.71Q132.67 16.12 132.30 15.79Q131.93 15.47 131.20 15.47L131.20 15.47L129.88 15.47ZM146.61 22L139.86 22L139.86 13.60L146.45 13.60L146.45 15.44L142.22 15.44L142.22 16.85L145.95 16.85L145.95 18.63L142.22 18.63L142.22 20.17L146.61 20.17L146.61 22ZM152.83 22L150.40 22L154.11 13.60L156.45 13.60L160.17 22L157.70 22L157.04 20.37L153.49 20.37L152.83 22ZM155.27 15.93L154.18 18.61L156.34 18.61L155.27 15.93ZM163.90 17.80L163.90 17.80Q163.90 16.54 164.49 15.54Q165.09 14.55 166.14 13.99Q167.20 13.43 168.51 13.43L168.51 13.43Q169.67 13.43 170.59 13.84Q171.51 14.25 172.13 15.02L172.13 15.02L170.62 16.39Q169.80 15.40 168.64 15.40L168.64 15.40Q167.95 15.40 167.42 15.70Q166.88 16 166.59 16.54Q166.29 17.09 166.29 17.80L166.29 17.80Q166.29 18.51 166.59 19.05Q166.88 19.60 167.42 19.90Q167.95 20.20 168.64 20.20L168.64 20.20Q169.80 20.20 170.62 19.22L170.62 19.22L172.13 20.58Q171.52 21.35 170.59 21.76Q169.67 22.17 168.51 22.17L168.51 22.17Q167.20 22.17 166.14 21.61Q165.09 21.05 164.49 20.05Q163.90 19.06 163.90 17.80ZM178.46 15.48L175.87 15.48L175.87 13.60L183.40 13.60L183.40 15.48L180.83 15.48L180.83 22L178.46 22L178.46 15.48ZM191.01 19.46L187.50 19.46L187.50 17.71L191.01 17.71L191.01 19.46ZM195.48 17.80L195.48 17.80Q195.48 16.54 196.08 15.54Q196.67 14.55 197.73 13.99Q198.78 13.43 200.10 13.43L200.10 13.43Q201.25 13.43 202.17 13.84Q203.10 14.25 203.71 15.02L203.71 15.02L202.20 16.39Q201.38 15.40 200.22 15.40L200.22 15.40Q199.53 15.40 199.00 15.70Q198.47 16 198.17 16.54Q197.87 17.09 197.87 17.80L197.87 17.80Q197.87 18.51 198.17 19.05Q198.47 19.60 199.00 19.90Q199.53 20.20 200.22 20.20L200.22 20.20Q201.38 20.20 202.20 19.22L202.20 19.22L203.71 20.58Q203.10 21.35 202.18 21.76Q201.25 22.17 200.10 22.17L200.10 22.17Q198.78 22.17 197.73 21.61Q196.67 21.05 196.08 20.05Q195.48 19.06 195.48 17.80ZM210.62 22L208.25 22L208.25 13.60L212.09 13.60Q213.23 13.60 214.07 13.98Q214.91 14.35 215.37 15.06Q215.82 15.76 215.82 16.71L215.82 16.71Q215.82 17.62 215.39 18.30Q214.97 18.98 214.18 19.36L214.18 19.36L215.99 22L213.44 22L211.92 19.77L210.62 19.77L210.62 22ZM210.62 15.47L210.62 17.93L211.94 17.93Q212.68 17.93 213.05 17.61Q213.42 17.29 213.42 16.71L213.42 16.71Q213.42 16.12 213.05 15.79Q212.68 15.47 211.94 15.47L211.94 15.47L210.62 15.47ZM227.35 22L220.61 22L220.61 13.60L227.20 13.60L227.20 15.44L222.96 15.44L222.96 16.85L226.70 16.85L226.70 18.63L222.96 18.63L222.96 20.17L227.35 20.17L227.35 22ZM233.58 22L231.15 22L234.86 13.60L237.20 13.60L240.92 22L238.45 22L237.79 20.37L234.24 20.37L233.58 22ZM236.01 15.93L234.93 18.61L237.09 18.61L236.01 15.93ZM246.87 15.48L244.28 15.48L244.28 13.60L251.80 13.60L251.80 15.48L249.24 15.48L249.24 22L246.87 22L246.87 15.48ZM262.92 22L256.18 22L256.18 13.60L262.77 13.60L262.77 15.44L258.53 15.44L258.53 16.85L262.26 16.85L262.26 18.63L258.53 18.63L258.53 20.17L262.92 20.17L262.92 22ZM270.96 19.46L267.46 19.46L267.46 17.71L270.96 17.71L270.96 19.46ZM277.28 22L274.86 22L278.56 13.60L280.91 13.60L284.62 22L282.16 22L281.49 20.37L277.94 20.37L277.28 22ZM279.72 15.93L278.63 18.61L280.80 18.61L279.72 15.93ZM291.16 22L288.78 22L288.78 13.60L292.62 13.60Q293.76 13.60 294.60 13.98Q295.44 14.35 295.90 15.06Q296.35 15.76 296.35 16.71L296.35 16.71Q296.35 17.66 295.90 18.35Q295.44 19.05 294.60 19.42Q293.76 19.80 292.62 19.80L292.62 19.80L291.16 19.80L291.16 22ZM291.16 15.47L291.16 17.93L292.47 17.93Q293.21 17.93 293.58 17.61Q293.95 17.29 293.95 16.71L293.95 16.71Q293.95 16.12 293.58 15.80Q293.21 15.47 292.47 15.47L292.47 15.47L291.16 15.47ZM303.48 22L301.11 22L301.11 13.60L304.95 13.60Q306.09 13.60 306.93 13.98Q307.77 14.35 308.22 15.06Q308.68 15.76 308.68 16.71L308.68 16.71Q308.68 17.66 308.22 18.35Q307.77 19.05 306.93 19.42Q306.09 19.80 304.95 19.80L304.95 19.80L303.48 19.80L303.48 22ZM303.48 15.47L303.48 17.93L304.80 17.93Q305.54 17.93 305.91 17.61Q306.28 17.29 306.28 16.71L306.28 16.71Q306.28 16.12 305.91 15.80Q305.54 15.47 304.80 15.47L304.80 15.47L303.48 15.47Z" fill="#FFFFFF" x="126.31"/></svg>